<mxfile host="app.diagrams.net" modified="2021-02-02T02:01:11.127Z" agent="5.0 (Macintosh; Intel Mac OS X 10_15_3) AppleWebKit/537.36 (KHTML, like Gecko) Chrome/88.0.4324.96 Safari/537.36" etag="5II70FapHEtsFAP_Bt79" version="14.2.9" type="github">
  <diagram name="Page-1" id="74e2e168-ea6b-b213-b513-2b3c1d86103e">
    <mxGraphModel dx="1188" dy="669" grid="1" gridSize="10" guides="1" tooltips="1" connect="1" arrows="1" fold="1" page="1" pageScale="2" pageWidth="1100" pageHeight="850" background="#ffffff" math="0" shadow="0">
      <root>
        <mxCell id="0" />
        <mxCell id="1" parent="0" />
        <mxCell id="77e6c97f196da883-1" value="" style="swimlane;html=1;childLayout=stackLayout;startSize=20;rounded=0;shadow=0;labelBackgroundColor=none;strokeWidth=1;fontFamily=Verdana;fontSize=8;align=center;" parent="1" vertex="1">
          <mxGeometry x="70" y="40" width="960" height="1650" as="geometry" />
        </mxCell>
        <mxCell id="77e6c97f196da883-2" value="Tuya网关业务" style="swimlane;html=1;startSize=20;" parent="77e6c97f196da883-1" vertex="1">
          <mxGeometry y="20" width="180" height="1630" as="geometry" />
        </mxCell>
        <mxCell id="au1W2-LvARbzi0Hy6lRk-4" value="网关初始化" style="rounded=1;whiteSpace=wrap;html=1;" vertex="1" parent="77e6c97f196da883-2">
          <mxGeometry x="30" y="50" width="120" height="60" as="geometry" />
        </mxCell>
        <mxCell id="au1W2-LvARbzi0Hy6lRk-7" value="网关搜索设备" style="rounded=1;whiteSpace=wrap;html=1;" vertex="1" parent="77e6c97f196da883-2">
          <mxGeometry x="30" y="350" width="120" height="60" as="geometry" />
        </mxCell>
        <mxCell id="au1W2-LvARbzi0Hy6lRk-31" value="设备筛选" style="whiteSpace=wrap;html=1;rounded=1;" vertex="1" parent="77e6c97f196da883-2">
          <mxGeometry x="30" y="490" width="120" height="60" as="geometry" />
        </mxCell>
        <mxCell id="au1W2-LvARbzi0Hy6lRk-60" value="网关获取连接事件回调" style="whiteSpace=wrap;html=1;rounded=1;" vertex="1" parent="77e6c97f196da883-2">
          <mxGeometry x="30" y="750" width="120" height="60" as="geometry" />
        </mxCell>
        <mxCell id="au1W2-LvARbzi0Hy6lRk-62" value="网关请求断开设备" style="whiteSpace=wrap;html=1;rounded=1;" vertex="1" parent="77e6c97f196da883-2">
          <mxGeometry x="30" y="880" width="120" height="60" as="geometry" />
        </mxCell>
        <mxCell id="au1W2-LvARbzi0Hy6lRk-83" value="网关断开连接事件回调" style="whiteSpace=wrap;html=1;rounded=1;" vertex="1" parent="77e6c97f196da883-2">
          <mxGeometry x="30" y="1020" width="120" height="60" as="geometry" />
        </mxCell>
        <mxCell id="au1W2-LvARbzi0Hy6lRk-99" value="网关接收对端数据" style="whiteSpace=wrap;html=1;rounded=1;" vertex="1" parent="77e6c97f196da883-2">
          <mxGeometry x="30" y="1300" width="120" height="60" as="geometry" />
        </mxCell>
        <mxCell id="77e6c97f196da883-4" value="JNI" style="swimlane;html=1;startSize=20;" parent="77e6c97f196da883-1" vertex="1">
          <mxGeometry x="180" y="20" width="220" height="1630" as="geometry" />
        </mxCell>
        <mxCell id="au1W2-LvARbzi0Hy6lRk-8" value="1. 搜索设备回调管理&lt;br&gt;2. 蓝牙连接回调管理&lt;br&gt;&amp;nbsp; &amp;nbsp; 连接/断开连接&lt;br&gt;&amp;nbsp; &amp;nbsp;&amp;nbsp;&lt;span style=&quot;text-align: center&quot;&gt;连接事件（成功/失败）&lt;br&gt;3. 透传数据&lt;br&gt;&lt;/span&gt;" style="rounded=1;whiteSpace=wrap;html=1;align=left;" vertex="1" parent="77e6c97f196da883-4">
          <mxGeometry x="47.5" y="130" width="120" height="120" as="geometry" />
        </mxCell>
        <mxCell id="au1W2-LvARbzi0Hy6lRk-11" value="搜索设备回调管理" style="rounded=1;whiteSpace=wrap;html=1;" vertex="1" parent="77e6c97f196da883-4">
          <mxGeometry x="47.5" y="350" width="120" height="60" as="geometry" />
        </mxCell>
        <mxCell id="au1W2-LvARbzi0Hy6lRk-29" value="扫描回调" style="whiteSpace=wrap;html=1;rounded=1;" vertex="1" parent="77e6c97f196da883-4">
          <mxGeometry x="47.5" y="490" width="120" height="60" as="geometry" />
        </mxCell>
        <mxCell id="au1W2-LvARbzi0Hy6lRk-48" value="蓝牙连接回调管理" style="whiteSpace=wrap;html=1;rounded=1;" vertex="1" parent="77e6c97f196da883-4">
          <mxGeometry x="47.5" y="630" width="120" height="60" as="geometry" />
        </mxCell>
        <mxCell id="au1W2-LvARbzi0Hy6lRk-58" value="连接失败/成功事件" style="whiteSpace=wrap;html=1;rounded=1;" vertex="1" parent="77e6c97f196da883-4">
          <mxGeometry x="47.5" y="750" width="120" height="60" as="geometry" />
        </mxCell>
        <mxCell id="au1W2-LvARbzi0Hy6lRk-71" value="断开连接" style="whiteSpace=wrap;html=1;rounded=1;" vertex="1" parent="77e6c97f196da883-4">
          <mxGeometry x="52.5" y="880" width="120" height="60" as="geometry" />
        </mxCell>
        <mxCell id="au1W2-LvARbzi0Hy6lRk-81" value="断开连接事件" style="whiteSpace=wrap;html=1;rounded=1;" vertex="1" parent="77e6c97f196da883-4">
          <mxGeometry x="47.5" y="1020" width="120" height="60" as="geometry" />
        </mxCell>
        <mxCell id="au1W2-LvARbzi0Hy6lRk-88" value="透传发送数据" style="whiteSpace=wrap;html=1;rounded=1;" vertex="1" parent="77e6c97f196da883-4">
          <mxGeometry x="52.5" y="1160" width="120" height="60" as="geometry" />
        </mxCell>
        <mxCell id="au1W2-LvARbzi0Hy6lRk-97" value="透传接收数据" style="whiteSpace=wrap;html=1;rounded=1;" vertex="1" parent="77e6c97f196da883-4">
          <mxGeometry x="52.5" y="1300" width="120" height="60" as="geometry" />
        </mxCell>
        <mxCell id="77e6c97f196da883-7" value="适配层" style="swimlane;html=1;startSize=20;" parent="77e6c97f196da883-1" vertex="1">
          <mxGeometry x="400" y="20" width="180" height="1630" as="geometry" />
        </mxCell>
        <mxCell id="au1W2-LvARbzi0Hy6lRk-5" value="使能 bluetooth adapter" style="rounded=1;whiteSpace=wrap;html=1;" vertex="1" parent="77e6c97f196da883-7">
          <mxGeometry x="20" y="50" width="120" height="60" as="geometry" />
        </mxCell>
        <mxCell id="au1W2-LvARbzi0Hy6lRk-9" value="注册搜索设备回调" style="rounded=1;whiteSpace=wrap;html=1;" vertex="1" parent="77e6c97f196da883-7">
          <mxGeometry x="20" y="160" width="120" height="60" as="geometry" />
        </mxCell>
        <mxCell id="au1W2-LvARbzi0Hy6lRk-18" value="搜索蓝牙" style="rounded=1;whiteSpace=wrap;html=1;" vertex="1" parent="77e6c97f196da883-7">
          <mxGeometry x="20" y="350" width="120" height="60" as="geometry" />
        </mxCell>
        <mxCell id="au1W2-LvARbzi0Hy6lRk-27" value="扫描回调" style="whiteSpace=wrap;html=1;rounded=1;" vertex="1" parent="77e6c97f196da883-7">
          <mxGeometry x="20" y="490" width="120" height="60" as="geometry" />
        </mxCell>
        <mxCell id="au1W2-LvARbzi0Hy6lRk-50" value="连接蓝牙" style="whiteSpace=wrap;html=1;rounded=1;" vertex="1" parent="77e6c97f196da883-7">
          <mxGeometry x="20" y="630" width="120" height="60" as="geometry" />
        </mxCell>
        <mxCell id="au1W2-LvARbzi0Hy6lRk-56" value="连接失败/成功事件" style="whiteSpace=wrap;html=1;rounded=1;" vertex="1" parent="77e6c97f196da883-7">
          <mxGeometry x="20" y="750" width="120" height="60" as="geometry" />
        </mxCell>
        <mxCell id="au1W2-LvARbzi0Hy6lRk-73" value="断开连接" style="whiteSpace=wrap;html=1;rounded=1;" vertex="1" parent="77e6c97f196da883-7">
          <mxGeometry x="30" y="880" width="110" height="60" as="geometry" />
        </mxCell>
        <mxCell id="au1W2-LvARbzi0Hy6lRk-79" value="断开连接事件" style="whiteSpace=wrap;html=1;rounded=1;" vertex="1" parent="77e6c97f196da883-7">
          <mxGeometry x="25" y="1020" width="120" height="60" as="geometry" />
        </mxCell>
        <mxCell id="au1W2-LvARbzi0Hy6lRk-90" value="透传发送数据" style="whiteSpace=wrap;html=1;rounded=1;" vertex="1" parent="77e6c97f196da883-7">
          <mxGeometry x="30" y="1160" width="120" height="60" as="geometry" />
        </mxCell>
        <mxCell id="au1W2-LvARbzi0Hy6lRk-94" value="透传接收" style="whiteSpace=wrap;html=1;rounded=1;" vertex="1" parent="77e6c97f196da883-7">
          <mxGeometry x="30" y="1300" width="120" height="60" as="geometry" />
        </mxCell>
        <mxCell id="au1W2-LvARbzi0Hy6lRk-2" value="Bluedroid+HW Bluetooth" style="swimlane;html=1;startSize=20;" vertex="1" parent="77e6c97f196da883-1">
          <mxGeometry x="580" y="20" width="170" height="1630" as="geometry">
            <mxRectangle x="500" y="20" width="30" height="730" as="alternateBounds" />
          </mxGeometry>
        </mxCell>
        <mxCell id="au1W2-LvARbzi0Hy6lRk-16" value="蓝牙使能" style="rounded=1;whiteSpace=wrap;html=1;" vertex="1" parent="au1W2-LvARbzi0Hy6lRk-2">
          <mxGeometry x="20" y="50" width="120" height="60" as="geometry" />
        </mxCell>
        <mxCell id="au1W2-LvARbzi0Hy6lRk-19" value="Scan" style="rounded=1;whiteSpace=wrap;html=1;" vertex="1" parent="au1W2-LvARbzi0Hy6lRk-2">
          <mxGeometry x="20" y="350" width="120" height="60" as="geometry" />
        </mxCell>
        <mxCell id="au1W2-LvARbzi0Hy6lRk-25" value="扫描回调" style="whiteSpace=wrap;html=1;rounded=1;" vertex="1" parent="au1W2-LvARbzi0Hy6lRk-2">
          <mxGeometry x="20" y="490" width="120" height="60" as="geometry" />
        </mxCell>
        <mxCell id="au1W2-LvARbzi0Hy6lRk-26" value="" style="edgeStyle=orthogonalEdgeStyle;rounded=0;orthogonalLoop=1;jettySize=auto;html=1;" edge="1" parent="au1W2-LvARbzi0Hy6lRk-2" source="au1W2-LvARbzi0Hy6lRk-19" target="au1W2-LvARbzi0Hy6lRk-25">
          <mxGeometry relative="1" as="geometry" />
        </mxCell>
        <mxCell id="au1W2-LvARbzi0Hy6lRk-52" value="Gatt Connect&lt;br&gt;Service Discovery" style="whiteSpace=wrap;html=1;rounded=1;" vertex="1" parent="au1W2-LvARbzi0Hy6lRk-2">
          <mxGeometry x="20" y="630" width="120" height="60" as="geometry" />
        </mxCell>
        <mxCell id="au1W2-LvARbzi0Hy6lRk-54" value="连接失败/成功事件" style="whiteSpace=wrap;html=1;rounded=1;" vertex="1" parent="au1W2-LvARbzi0Hy6lRk-2">
          <mxGeometry x="20" y="750" width="120" height="60" as="geometry" />
        </mxCell>
        <mxCell id="au1W2-LvARbzi0Hy6lRk-55" value="" style="edgeStyle=orthogonalEdgeStyle;rounded=0;orthogonalLoop=1;jettySize=auto;html=1;" edge="1" parent="au1W2-LvARbzi0Hy6lRk-2" source="au1W2-LvARbzi0Hy6lRk-52" target="au1W2-LvARbzi0Hy6lRk-54">
          <mxGeometry relative="1" as="geometry" />
        </mxCell>
        <mxCell id="au1W2-LvARbzi0Hy6lRk-75" value="断开连接" style="whiteSpace=wrap;html=1;rounded=1;" vertex="1" parent="au1W2-LvARbzi0Hy6lRk-2">
          <mxGeometry x="20" y="880" width="120" height="60" as="geometry" />
        </mxCell>
        <mxCell id="au1W2-LvARbzi0Hy6lRk-92" value="Gatt Send / Receive" style="whiteSpace=wrap;html=1;rounded=1;" vertex="1" parent="au1W2-LvARbzi0Hy6lRk-2">
          <mxGeometry x="25" y="1220" width="120" height="60" as="geometry" />
        </mxCell>
        <mxCell id="au1W2-LvARbzi0Hy6lRk-77" value="断开连接事件" style="whiteSpace=wrap;html=1;rounded=1;" vertex="1" parent="au1W2-LvARbzi0Hy6lRk-2">
          <mxGeometry x="20" y="1020" width="120" height="60" as="geometry" />
        </mxCell>
        <mxCell id="au1W2-LvARbzi0Hy6lRk-78" value="" style="edgeStyle=orthogonalEdgeStyle;rounded=0;orthogonalLoop=1;jettySize=auto;html=1;" edge="1" parent="au1W2-LvARbzi0Hy6lRk-2" source="au1W2-LvARbzi0Hy6lRk-75" target="au1W2-LvARbzi0Hy6lRk-77">
          <mxGeometry relative="1" as="geometry" />
        </mxCell>
        <mxCell id="au1W2-LvARbzi0Hy6lRk-6" value="" style="endArrow=classic;html=1;exitX=1;exitY=0.5;exitDx=0;exitDy=0;" edge="1" parent="77e6c97f196da883-1" source="au1W2-LvARbzi0Hy6lRk-4" target="au1W2-LvARbzi0Hy6lRk-5">
          <mxGeometry width="50" height="50" relative="1" as="geometry">
            <mxPoint x="280" y="180" as="sourcePoint" />
            <mxPoint x="200" y="110" as="targetPoint" />
          </mxGeometry>
        </mxCell>
        <mxCell id="au1W2-LvARbzi0Hy6lRk-10" value="" style="endArrow=classic;html=1;exitX=0;exitY=0.5;exitDx=0;exitDy=0;entryX=1;entryY=0.5;entryDx=0;entryDy=0;" edge="1" parent="77e6c97f196da883-1" source="au1W2-LvARbzi0Hy6lRk-9" target="au1W2-LvARbzi0Hy6lRk-8">
          <mxGeometry width="50" height="50" relative="1" as="geometry">
            <mxPoint x="300" y="230" as="sourcePoint" />
            <mxPoint x="350" y="180" as="targetPoint" />
          </mxGeometry>
        </mxCell>
        <mxCell id="au1W2-LvARbzi0Hy6lRk-12" value="" style="endArrow=classic;html=1;exitX=1;exitY=0.5;exitDx=0;exitDy=0;entryX=0;entryY=0.5;entryDx=0;entryDy=0;" edge="1" parent="77e6c97f196da883-1" source="au1W2-LvARbzi0Hy6lRk-7" target="au1W2-LvARbzi0Hy6lRk-11">
          <mxGeometry width="50" height="50" relative="1" as="geometry">
            <mxPoint x="70" y="410" as="sourcePoint" />
            <mxPoint x="120" y="360" as="targetPoint" />
          </mxGeometry>
        </mxCell>
        <mxCell id="au1W2-LvARbzi0Hy6lRk-17" style="edgeStyle=orthogonalEdgeStyle;rounded=0;orthogonalLoop=1;jettySize=auto;html=1;exitX=1;exitY=0.5;exitDx=0;exitDy=0;entryX=0;entryY=0.5;entryDx=0;entryDy=0;" edge="1" parent="77e6c97f196da883-1" source="au1W2-LvARbzi0Hy6lRk-5" target="au1W2-LvARbzi0Hy6lRk-16">
          <mxGeometry relative="1" as="geometry" />
        </mxCell>
        <mxCell id="au1W2-LvARbzi0Hy6lRk-20" style="edgeStyle=orthogonalEdgeStyle;rounded=0;orthogonalLoop=1;jettySize=auto;html=1;exitX=1;exitY=0.5;exitDx=0;exitDy=0;" edge="1" parent="77e6c97f196da883-1" source="au1W2-LvARbzi0Hy6lRk-11" target="au1W2-LvARbzi0Hy6lRk-18">
          <mxGeometry relative="1" as="geometry" />
        </mxCell>
        <mxCell id="au1W2-LvARbzi0Hy6lRk-21" style="edgeStyle=orthogonalEdgeStyle;rounded=0;orthogonalLoop=1;jettySize=auto;html=1;exitX=1;exitY=0.5;exitDx=0;exitDy=0;entryX=0;entryY=0.5;entryDx=0;entryDy=0;" edge="1" parent="77e6c97f196da883-1" source="au1W2-LvARbzi0Hy6lRk-18" target="au1W2-LvARbzi0Hy6lRk-19">
          <mxGeometry relative="1" as="geometry" />
        </mxCell>
        <mxCell id="au1W2-LvARbzi0Hy6lRk-30" value="" style="edgeStyle=orthogonalEdgeStyle;rounded=0;orthogonalLoop=1;jettySize=auto;html=1;" edge="1" parent="77e6c97f196da883-1" source="au1W2-LvARbzi0Hy6lRk-27" target="au1W2-LvARbzi0Hy6lRk-29">
          <mxGeometry relative="1" as="geometry" />
        </mxCell>
        <mxCell id="au1W2-LvARbzi0Hy6lRk-32" value="" style="edgeStyle=orthogonalEdgeStyle;rounded=0;orthogonalLoop=1;jettySize=auto;html=1;" edge="1" parent="77e6c97f196da883-1" source="au1W2-LvARbzi0Hy6lRk-29" target="au1W2-LvARbzi0Hy6lRk-31">
          <mxGeometry relative="1" as="geometry" />
        </mxCell>
        <mxCell id="au1W2-LvARbzi0Hy6lRk-51" value="" style="edgeStyle=orthogonalEdgeStyle;rounded=0;orthogonalLoop=1;jettySize=auto;html=1;" edge="1" parent="77e6c97f196da883-1" source="au1W2-LvARbzi0Hy6lRk-48" target="au1W2-LvARbzi0Hy6lRk-50">
          <mxGeometry relative="1" as="geometry" />
        </mxCell>
        <mxCell id="au1W2-LvARbzi0Hy6lRk-28" value="" style="edgeStyle=orthogonalEdgeStyle;rounded=0;orthogonalLoop=1;jettySize=auto;html=1;" edge="1" parent="77e6c97f196da883-1" source="au1W2-LvARbzi0Hy6lRk-25" target="au1W2-LvARbzi0Hy6lRk-27">
          <mxGeometry relative="1" as="geometry" />
        </mxCell>
        <mxCell id="au1W2-LvARbzi0Hy6lRk-53" value="" style="edgeStyle=orthogonalEdgeStyle;rounded=0;orthogonalLoop=1;jettySize=auto;html=1;" edge="1" parent="77e6c97f196da883-1" source="au1W2-LvARbzi0Hy6lRk-50" target="au1W2-LvARbzi0Hy6lRk-52">
          <mxGeometry relative="1" as="geometry" />
        </mxCell>
        <mxCell id="au1W2-LvARbzi0Hy6lRk-57" value="" style="edgeStyle=orthogonalEdgeStyle;rounded=0;orthogonalLoop=1;jettySize=auto;html=1;" edge="1" parent="77e6c97f196da883-1" source="au1W2-LvARbzi0Hy6lRk-54" target="au1W2-LvARbzi0Hy6lRk-56">
          <mxGeometry relative="1" as="geometry" />
        </mxCell>
        <mxCell id="au1W2-LvARbzi0Hy6lRk-59" value="" style="edgeStyle=orthogonalEdgeStyle;rounded=0;orthogonalLoop=1;jettySize=auto;html=1;" edge="1" parent="77e6c97f196da883-1" source="au1W2-LvARbzi0Hy6lRk-56" target="au1W2-LvARbzi0Hy6lRk-58">
          <mxGeometry relative="1" as="geometry" />
        </mxCell>
        <mxCell id="au1W2-LvARbzi0Hy6lRk-61" value="" style="edgeStyle=orthogonalEdgeStyle;rounded=0;orthogonalLoop=1;jettySize=auto;html=1;" edge="1" parent="77e6c97f196da883-1" source="au1W2-LvARbzi0Hy6lRk-58" target="au1W2-LvARbzi0Hy6lRk-60">
          <mxGeometry relative="1" as="geometry" />
        </mxCell>
        <mxCell id="au1W2-LvARbzi0Hy6lRk-72" value="" style="edgeStyle=orthogonalEdgeStyle;rounded=0;orthogonalLoop=1;jettySize=auto;html=1;" edge="1" parent="77e6c97f196da883-1" source="au1W2-LvARbzi0Hy6lRk-62" target="au1W2-LvARbzi0Hy6lRk-71">
          <mxGeometry relative="1" as="geometry" />
        </mxCell>
        <mxCell id="au1W2-LvARbzi0Hy6lRk-74" style="edgeStyle=orthogonalEdgeStyle;rounded=0;orthogonalLoop=1;jettySize=auto;html=1;exitX=1;exitY=0.5;exitDx=0;exitDy=0;" edge="1" parent="77e6c97f196da883-1" source="au1W2-LvARbzi0Hy6lRk-71" target="au1W2-LvARbzi0Hy6lRk-73">
          <mxGeometry relative="1" as="geometry" />
        </mxCell>
        <mxCell id="au1W2-LvARbzi0Hy6lRk-76" style="edgeStyle=orthogonalEdgeStyle;rounded=0;orthogonalLoop=1;jettySize=auto;html=1;" edge="1" parent="77e6c97f196da883-1" source="au1W2-LvARbzi0Hy6lRk-73" target="au1W2-LvARbzi0Hy6lRk-75">
          <mxGeometry relative="1" as="geometry" />
        </mxCell>
        <mxCell id="au1W2-LvARbzi0Hy6lRk-82" value="" style="edgeStyle=orthogonalEdgeStyle;rounded=0;orthogonalLoop=1;jettySize=auto;html=1;" edge="1" parent="77e6c97f196da883-1" source="au1W2-LvARbzi0Hy6lRk-79" target="au1W2-LvARbzi0Hy6lRk-81">
          <mxGeometry relative="1" as="geometry" />
        </mxCell>
        <mxCell id="au1W2-LvARbzi0Hy6lRk-84" value="" style="edgeStyle=orthogonalEdgeStyle;rounded=0;orthogonalLoop=1;jettySize=auto;html=1;" edge="1" parent="77e6c97f196da883-1" source="au1W2-LvARbzi0Hy6lRk-81" target="au1W2-LvARbzi0Hy6lRk-83">
          <mxGeometry relative="1" as="geometry" />
        </mxCell>
        <mxCell id="au1W2-LvARbzi0Hy6lRk-91" value="" style="edgeStyle=orthogonalEdgeStyle;rounded=0;orthogonalLoop=1;jettySize=auto;html=1;" edge="1" parent="77e6c97f196da883-1" source="au1W2-LvARbzi0Hy6lRk-88" target="au1W2-LvARbzi0Hy6lRk-90">
          <mxGeometry relative="1" as="geometry" />
        </mxCell>
        <mxCell id="au1W2-LvARbzi0Hy6lRk-93" value="" style="edgeStyle=orthogonalEdgeStyle;rounded=0;orthogonalLoop=1;jettySize=auto;html=1;" edge="1" parent="77e6c97f196da883-1" source="au1W2-LvARbzi0Hy6lRk-90" target="au1W2-LvARbzi0Hy6lRk-92">
          <mxGeometry relative="1" as="geometry" />
        </mxCell>
        <mxCell id="au1W2-LvARbzi0Hy6lRk-100" value="" style="edgeStyle=orthogonalEdgeStyle;rounded=0;orthogonalLoop=1;jettySize=auto;html=1;" edge="1" parent="77e6c97f196da883-1" source="au1W2-LvARbzi0Hy6lRk-97" target="au1W2-LvARbzi0Hy6lRk-99">
          <mxGeometry relative="1" as="geometry" />
        </mxCell>
        <mxCell id="au1W2-LvARbzi0Hy6lRk-80" value="" style="edgeStyle=orthogonalEdgeStyle;rounded=0;orthogonalLoop=1;jettySize=auto;html=1;" edge="1" parent="77e6c97f196da883-1" source="au1W2-LvARbzi0Hy6lRk-77" target="au1W2-LvARbzi0Hy6lRk-79">
          <mxGeometry relative="1" as="geometry" />
        </mxCell>
        <mxCell id="au1W2-LvARbzi0Hy6lRk-96" style="edgeStyle=orthogonalEdgeStyle;rounded=0;orthogonalLoop=1;jettySize=auto;html=1;entryX=1;entryY=0.5;entryDx=0;entryDy=0;" edge="1" parent="77e6c97f196da883-1" source="au1W2-LvARbzi0Hy6lRk-92" target="au1W2-LvARbzi0Hy6lRk-94">
          <mxGeometry relative="1" as="geometry" />
        </mxCell>
        <mxCell id="au1W2-LvARbzi0Hy6lRk-98" value="" style="edgeStyle=orthogonalEdgeStyle;rounded=0;orthogonalLoop=1;jettySize=auto;html=1;" edge="1" parent="77e6c97f196da883-1" source="au1W2-LvARbzi0Hy6lRk-94" target="au1W2-LvARbzi0Hy6lRk-97">
          <mxGeometry relative="1" as="geometry" />
        </mxCell>
        <mxCell id="au1W2-LvARbzi0Hy6lRk-49" style="edgeStyle=orthogonalEdgeStyle;rounded=0;orthogonalLoop=1;jettySize=auto;html=1;exitX=1;exitY=0.5;exitDx=0;exitDy=0;entryX=0;entryY=0.5;entryDx=0;entryDy=0;" edge="1" parent="1" source="au1W2-LvARbzi0Hy6lRk-33" target="au1W2-LvARbzi0Hy6lRk-48">
          <mxGeometry relative="1" as="geometry" />
        </mxCell>
        <mxCell id="au1W2-LvARbzi0Hy6lRk-33" value="网关请求连接设备" style="whiteSpace=wrap;html=1;rounded=1;" vertex="1" parent="1">
          <mxGeometry x="100" y="690" width="120" height="60" as="geometry" />
        </mxCell>
        <mxCell id="au1W2-LvARbzi0Hy6lRk-89" value="" style="edgeStyle=orthogonalEdgeStyle;rounded=0;orthogonalLoop=1;jettySize=auto;html=1;" edge="1" parent="1" source="au1W2-LvARbzi0Hy6lRk-85" target="au1W2-LvARbzi0Hy6lRk-88">
          <mxGeometry relative="1" as="geometry" />
        </mxCell>
        <mxCell id="au1W2-LvARbzi0Hy6lRk-85" value="网关向对端发送数据" style="whiteSpace=wrap;html=1;rounded=1;" vertex="1" parent="1">
          <mxGeometry x="100" y="1220" width="120" height="60" as="geometry" />
        </mxCell>
      </root>
    </mxGraphModel>
  </diagram>
</mxfile>
